<?xml version="1.0" standalone="no"?>
<!DOCTYPE svg PUBLIC "-//W3C//DTD SVG 20010904//EN"
 "http://www.w3.org/TR/2001/REC-SVG-20010904/DTD/svg10.dtd">
<svg version="1.0" xmlns="http://www.w3.org/2000/svg"
 width="242.000000pt" height="242.000000pt" viewBox="0 0 242.000000 242.000000"
 preserveAspectRatio="xMidYMid meet">
<metadata>
Created by potrace 1.14, written by Peter Selinger 2001-2017
</metadata>
<g transform="translate(0.000000,242.000000) scale(0.100000,-0.100000)"
fill="#000000" stroke="none">
<path d="M1339 2286 c-2 -2 -38 -7 -79 -10 -41 -4 -106 -11 -145 -16 -75 -9
-176 -21 -405 -45 -80 -9 -165 -18 -189 -21 -25 -3 -76 -7 -115 -10 -86 -5
-122 -25 -152 -84 -33 -63 -30 -117 12 -240 20 -58 37 -109 38 -115 2 -5 6
-17 9 -25 4 -8 52 -150 108 -315 182 -542 297 -879 312 -920 8 -22 22 -62 30
-90 37 -117 104 -302 117 -323 25 -37 32 -36 460 82 113 32 273 77 355 100
226 65 308 88 334 92 48 9 109 52 130 93 20 37 15 71 -21 161 -43 105 -50 122
-54 135 -4 13 -81 204 -93 230 -5 11 -28 68 -51 128 -35 94 -71 183 -101 252
-4 11 -47 119 -94 240 -48 121 -98 247 -112 280 -14 33 -29 69 -34 80 -4 11
-29 74 -55 140 -49 128 -87 190 -119 199 -24 7 -80 8 -86 2z"/>
</g>
</svg>
